<svg width="262" height="35" viewBox="0 0 262 35" fill="none" xmlns="http://www.w3.org/2000/svg">
<path fill-rule="evenodd" clip-rule="evenodd" d="M18.3034 0L3.62314 6.93372L0 22.5097L10.1561 35H26.4471L36.6031 22.5097L32.98 6.93372L18.3034 0ZM20.8239 26.7461V23.1966C21.797 23.1966 22.627 22.8332 23.3139 22.1065C24.0008 21.3798 24.3442 20.5227 24.3442 19.5352H21.0528C20.9002 19.5352 20.8239 19.4606 20.8239 19.3116V12.8832C20.8239 12.7341 20.9002 12.6596 21.0528 12.6596H27.6928C27.8455 12.6596 27.9218 12.7341 27.9218 12.8832V19.5352C27.9218 20.8767 27.5879 22.0972 26.9201 23.1966C26.2523 24.2959 25.3841 25.1623 24.3156 25.7959C23.2471 26.4294 22.0832 26.7461 20.8239 26.7461ZM9.15077 23.1966V26.7461C10.4101 26.7461 11.574 26.4294 12.6425 25.7959C13.711 25.1623 14.5792 24.2959 15.247 23.1966C15.9148 22.0972 16.2487 20.8767 16.2487 19.5352V12.8832C16.2487 12.7341 16.1724 12.6596 16.0198 12.6596H9.37974C9.22709 12.6596 9.15077 12.7341 9.15077 12.8832V19.3116C9.15077 19.4606 9.22709 19.5352 9.37974 19.5352H12.6711C12.6711 20.5227 12.3277 21.3798 11.6408 22.1065C10.9539 22.8332 10.1239 23.1966 9.15077 23.1966Z" fill="#0B66C2"/>
<path d="M256.567 26.4358C255.661 26.4358 254.826 26.2086 254.061 25.754C253.305 25.2995 252.698 24.6949 252.241 23.94C251.792 23.1771 251.568 22.3411 251.568 21.4321V20.2876C251.568 20.1984 251.609 20.1537 251.693 20.1537H254.56C254.627 20.1537 254.66 20.1984 254.66 20.2876V21.4321C254.66 21.9759 254.847 22.4466 255.221 22.8443C255.595 23.2339 256.044 23.4287 256.567 23.4287C257.099 23.4287 257.552 23.2298 257.926 22.8321C258.3 22.4263 258.487 21.9596 258.487 21.4321C258.487 20.8233 258.08 20.2917 257.265 19.8372C257.132 19.756 256.958 19.6586 256.742 19.545C256.534 19.4232 256.285 19.2853 255.994 19.1311C255.703 18.9768 255.42 18.8267 255.146 18.6806C254.872 18.5264 254.606 18.3803 254.348 18.2423C253.417 17.7066 252.723 17.037 252.266 16.2335C251.817 15.4219 251.593 14.5128 251.593 13.5064C251.593 12.5811 251.826 11.7451 252.291 10.9984C252.756 10.2598 253.363 9.67543 254.111 9.24526C254.868 8.80697 255.686 8.58783 256.567 8.58783C257.473 8.58783 258.304 8.80697 259.061 9.24526C259.817 9.69166 260.419 10.2842 260.868 11.0228C261.325 11.7613 261.554 12.5892 261.554 13.5064V15.5517C261.554 15.6166 261.521 15.6491 261.454 15.6491H258.587C258.52 15.6491 258.487 15.6166 258.487 15.5517L258.462 13.5064C258.462 12.922 258.275 12.4472 257.901 12.0819C257.527 11.7167 257.082 11.5341 256.567 11.5341C256.044 11.5341 255.595 11.7289 255.221 12.1185C254.847 12.5081 254.66 12.9707 254.66 13.5064C254.66 14.0502 254.776 14.5047 255.009 14.8699C255.25 15.2352 255.686 15.5842 256.318 15.917C256.384 15.9494 256.538 16.0306 256.779 16.1604C257.02 16.2903 257.286 16.4364 257.577 16.5987C257.876 16.7529 258.146 16.895 258.387 17.0248C258.628 17.1466 258.774 17.2196 258.824 17.244C259.671 17.7066 260.341 18.2748 260.831 18.9484C261.33 19.6221 261.579 20.45 261.579 21.4321C261.579 22.3817 261.355 23.2339 260.906 23.9887C260.449 24.7435 259.842 25.3401 259.086 25.7784C258.329 26.2167 257.49 26.4358 256.567 26.4358Z" fill="#0B66C2"/>
<path d="M242.903 26.1919H240.011C239.944 26.1919 239.911 26.1513 239.911 26.0702L239.961 8.94049C239.961 8.87556 239.994 8.8431 240.061 8.8431H245.222C246.145 8.8431 246.992 9.06224 247.765 9.50053C248.538 9.93881 249.153 10.5273 249.61 11.2658C250.076 12.0044 250.309 12.8404 250.309 13.7738C250.309 14.3825 250.213 14.9345 250.022 15.4296C249.831 15.9247 249.606 16.3427 249.349 16.6836C249.099 17.0244 248.871 17.276 248.663 17.4384C249.585 18.4367 250.047 19.6095 250.047 20.9568L250.072 26.0702C250.072 26.1513 250.03 26.1919 249.947 26.1919H247.055C246.988 26.1919 246.955 26.1676 246.955 26.1189V20.9568C246.955 20.3562 246.739 19.8368 246.307 19.3985C245.874 18.9602 245.343 18.7411 244.711 18.7411H243.028L243.003 26.0702C243.003 26.1513 242.97 26.1919 242.903 26.1919ZM245.222 11.8259H243.028V15.7461H245.222C245.746 15.7461 246.211 15.5554 246.618 15.1739C247.034 14.7924 247.242 14.3257 247.242 13.7738C247.242 13.2462 247.042 12.7917 246.643 12.4103C246.244 12.0207 245.771 11.8259 245.222 11.8259Z" fill="#0B66C2"/>
<path d="M232.967 26.4362C232.061 26.4362 231.226 26.2089 230.462 25.7544C229.705 25.2999 229.094 24.6952 228.629 23.9404C228.172 23.1774 227.943 22.3414 227.943 21.4324L227.968 13.5311C227.968 12.6058 228.197 11.7739 228.654 11.0353C229.103 10.2886 229.709 9.69201 230.474 9.24561C231.239 8.79109 232.07 8.56383 232.967 8.56383C233.898 8.56383 234.734 8.78703 235.473 9.23344C236.221 9.67984 236.82 10.2805 237.268 11.0353C237.726 11.782 237.954 12.6139 237.954 13.5311L237.979 21.4324C237.979 22.3414 237.755 23.1734 237.306 23.9282C236.849 24.6911 236.242 25.2999 235.486 25.7544C234.729 26.2089 233.89 26.4362 232.967 26.4362ZM232.967 23.429C233.483 23.429 233.931 23.2261 234.314 22.8203C234.696 22.4064 234.887 21.9437 234.887 21.4324L234.862 13.5311C234.862 12.9792 234.684 12.5125 234.326 12.131C233.969 11.7495 233.516 11.5588 232.967 11.5588C232.444 11.5588 231.995 11.7455 231.621 12.1188C231.247 12.4922 231.06 12.9629 231.06 13.5311V21.4324C231.06 21.9762 231.247 22.447 231.621 22.8447C231.995 23.2342 232.444 23.429 232.967 23.429Z" fill="#0B66C2"/>
<path d="M223.99 26.1919H221.111C221.036 26.1919 220.998 26.1513 220.998 26.0702V11.8502H217.682C217.599 11.8502 217.558 11.8096 217.558 11.7285L217.582 8.94049C217.582 8.87556 217.616 8.8431 217.682 8.8431H227.382C227.473 8.8431 227.519 8.87556 227.519 8.94049V11.7285C227.519 11.8096 227.485 11.8502 227.419 11.8502H224.065L224.09 26.0702C224.09 26.1513 224.057 26.1919 223.99 26.1919Z" fill="#0B66C2"/>
<path d="M208.332 26.0702L211.499 8.94049C211.516 8.87556 211.557 8.8431 211.624 8.8431H215.326C215.393 8.8431 215.434 8.87556 215.451 8.94049L218.493 26.0702C218.501 26.1513 218.468 26.1919 218.393 26.1919H215.563C215.48 26.1919 215.434 26.1513 215.426 26.0702L215.152 24.244H211.674L211.399 26.0702C211.391 26.1513 211.349 26.1919 211.275 26.1919H208.432C208.366 26.1919 208.332 26.1513 208.332 26.0702ZM213.594 14.5773L213.444 13.6521L213.332 14.5773L212.185 21.5777H214.641L213.594 14.5773Z" fill="#0B66C2"/>
<path d="M206.824 26.1919H198.571C198.504 26.1919 198.471 26.1513 198.471 26.0702L198.496 8.94049C198.496 8.87556 198.529 8.8431 198.596 8.8431H206.799C206.866 8.8431 206.899 8.88368 206.899 8.96484V11.7528C206.899 11.8178 206.866 11.8502 206.799 11.8502H201.563V15.7461H206.799C206.866 15.7461 206.899 15.7786 206.899 15.8435L206.924 18.668C206.924 18.7329 206.891 18.7654 206.824 18.7654H201.563V23.1239H206.824C206.891 23.1239 206.924 23.1645 206.924 23.2457V26.0945C206.924 26.1595 206.891 26.1919 206.824 26.1919Z" fill="#0B66C2"/>
<path d="M189.145 26.1919H186.253C186.186 26.1919 186.153 26.1513 186.153 26.0702L186.203 8.94049C186.203 8.87556 186.236 8.8431 186.303 8.8431H191.464C192.387 8.8431 193.234 9.06224 194.007 9.50053C194.78 9.93881 195.395 10.5273 195.852 11.2658C196.318 12.0044 196.551 12.8404 196.551 13.7738C196.551 14.3825 196.455 14.9345 196.264 15.4296C196.073 15.9247 195.848 16.3427 195.591 16.6836C195.341 17.0244 195.113 17.276 194.905 17.4384C195.827 18.4367 196.289 19.6095 196.289 20.9568L196.314 26.0702C196.314 26.1513 196.272 26.1919 196.189 26.1919H193.297C193.23 26.1919 193.197 26.1676 193.197 26.1189V20.9568C193.197 20.3562 192.981 19.8368 192.549 19.3985C192.116 18.9602 191.585 18.7411 190.953 18.7411H189.27L189.245 26.0702C189.245 26.1513 189.212 26.1919 189.145 26.1919ZM191.464 11.8259H189.27V15.7461H191.464C191.988 15.7461 192.453 15.5554 192.86 15.1739C193.276 14.7924 193.484 14.3257 193.484 13.7738C193.484 13.2462 193.284 12.7917 192.885 12.4103C192.486 12.0207 192.013 11.8259 191.464 11.8259Z" fill="#0B66C2"/>
<path d="M179.284 26.4362C178.362 26.4362 177.518 26.2089 176.754 25.7544C175.997 25.2999 175.395 24.6911 174.946 23.9282C174.505 23.1571 174.285 22.3009 174.285 21.3594L174.31 13.5798C174.31 12.6545 174.526 11.8185 174.958 11.0718C175.39 10.317 175.985 9.71231 176.741 9.25779C177.506 8.79515 178.353 8.56383 179.284 8.56383C180.232 8.56383 181.075 8.78703 181.815 9.23344C182.563 9.67984 183.157 10.2845 183.598 11.0475C184.047 11.8023 184.271 12.6464 184.271 13.5798V14.7242C184.271 14.7891 184.238 14.8216 184.171 14.8216H181.304C181.238 14.8216 181.204 14.7891 181.204 14.7242V13.5798C181.204 13.0279 181.021 12.5531 180.656 12.1553C180.29 11.7576 179.833 11.5588 179.284 11.5588C178.678 11.5588 178.212 11.7617 177.888 12.1675C177.564 12.5733 177.402 13.0441 177.402 13.5798V21.3594C177.402 21.9681 177.585 22.4672 177.95 22.8568C178.316 23.2383 178.761 23.429 179.284 23.429C179.833 23.429 180.29 23.218 180.656 22.796C181.021 22.3658 181.204 21.8869 181.204 21.3594V20.2028C181.204 20.1378 181.238 20.1054 181.304 20.1054H184.196C184.263 20.1054 184.296 20.1378 184.296 20.2028V21.3594C184.296 22.2927 184.072 23.145 183.623 23.916C183.166 24.679 182.563 25.2918 181.815 25.7544C181.067 26.2089 180.224 26.4362 179.284 26.4362Z" fill="#0B66C2"/>
<path d="M167.626 26.1919H159.372C159.306 26.1919 159.273 26.1513 159.273 26.0702L159.298 8.94049C159.298 8.87556 159.331 8.8431 159.397 8.8431H167.601C167.667 8.8431 167.7 8.88368 167.7 8.96484V11.7528C167.7 11.8178 167.667 11.8502 167.601 11.8502H162.364V15.7461H167.601C167.667 15.7461 167.7 15.7786 167.7 15.8435L167.725 18.668C167.725 18.7329 167.692 18.7654 167.626 18.7654H162.364V23.1239H167.626C167.692 23.1239 167.725 23.1645 167.725 23.2457V26.0945C167.725 26.1595 167.692 26.1919 167.626 26.1919Z" fill="#0B66C2"/>
<path d="M149.947 26.1919H147.055C146.988 26.1919 146.955 26.1513 146.955 26.0702L147.005 8.94049C147.005 8.87556 147.038 8.8431 147.105 8.8431H152.266C153.189 8.8431 154.036 9.06224 154.809 9.50053C155.582 9.93881 156.197 10.5273 156.654 11.2658C157.12 12.0044 157.353 12.8404 157.353 13.7738C157.353 14.3825 157.257 14.9345 157.066 15.4296C156.875 15.9247 156.65 16.3427 156.393 16.6836C156.143 17.0244 155.915 17.276 155.707 17.4384C156.629 18.4367 157.091 19.6095 157.091 20.9568L157.116 26.0702C157.116 26.1513 157.074 26.1919 156.991 26.1919H154.099C154.032 26.1919 153.999 26.1676 153.999 26.1189V20.9568C153.999 20.3562 153.783 19.8368 153.351 19.3985C152.918 18.9602 152.387 18.7411 151.755 18.7411H150.072L150.047 26.0702C150.047 26.1513 150.014 26.1919 149.947 26.1919ZM152.266 11.8259H150.072V15.7461H152.266C152.79 15.7461 153.255 15.5554 153.662 15.1739C154.078 14.7924 154.286 14.3257 154.286 13.7738C154.286 13.2462 154.086 12.7917 153.687 12.4103C153.288 12.0207 152.815 11.8259 152.266 11.8259Z" fill="#0B66C2"/>
<path d="M139.912 26.4354C139.014 26.4354 138.183 26.2082 137.418 25.7536C136.654 25.2991 136.043 24.6904 135.586 23.9274C135.137 23.1564 134.912 22.3163 134.912 21.4073L134.962 8.94049C134.962 8.87556 134.995 8.8431 135.062 8.8431H137.929C137.996 8.8431 138.029 8.87556 138.029 8.94049V21.4073C138.029 21.9673 138.212 22.4462 138.578 22.8439C138.943 23.2335 139.388 23.4283 139.912 23.4283C140.46 23.4283 140.917 23.2335 141.283 22.8439C141.649 22.4462 141.831 21.9673 141.831 21.4073V8.94049C141.831 8.87556 141.865 8.8431 141.931 8.8431H144.799C144.865 8.8431 144.898 8.87556 144.898 8.94049L144.948 21.4073C144.948 22.3245 144.724 23.1686 144.275 23.9396C143.818 24.7026 143.211 25.3113 142.455 25.7658C141.698 26.2122 140.851 26.4354 139.912 26.4354Z" fill="#0B66C2"/>
<path d="M128.392 26.4362C127.47 26.4362 126.639 26.213 125.899 25.7666C125.151 25.3202 124.548 24.7196 124.091 23.9647C123.642 23.2099 123.418 22.3658 123.418 21.4324V13.5311C123.418 12.622 123.647 11.7942 124.104 11.0475C124.552 10.2926 125.155 9.69201 125.911 9.24561C126.668 8.79109 127.495 8.56383 128.392 8.56383C129.331 8.56383 130.179 8.78298 130.936 9.22126C131.692 9.66767 132.29 10.2642 132.731 11.0109C133.18 11.7576 133.404 12.5977 133.404 13.5311V14.6755C133.404 14.7404 133.363 14.7729 133.279 14.7729H130.412C130.345 14.7729 130.312 14.7404 130.312 14.6755V13.7259C130.312 13.0928 130.129 12.5693 129.764 12.1553C129.398 11.7414 128.941 11.5344 128.392 11.5344C127.902 11.5344 127.466 11.7333 127.083 12.131C126.701 12.5287 126.51 12.9954 126.51 13.5311V21.4324C126.51 21.9762 126.697 22.447 127.071 22.8447C127.445 23.2342 127.885 23.429 128.392 23.429C128.941 23.429 129.398 23.2383 129.764 22.8568C130.129 22.4672 130.312 21.9924 130.312 21.4324V20.2028H128.529C128.438 20.2028 128.392 20.1622 128.392 20.081V17.293C128.392 17.2119 128.438 17.1713 128.529 17.1713H133.304C133.371 17.1713 133.404 17.2119 133.404 17.293V21.4324C133.404 22.3658 133.18 23.2099 132.731 23.9647C132.274 24.7196 131.671 25.3202 130.923 25.7666C130.175 26.213 129.331 26.4362 128.392 26.4362Z" fill="#0B66C2"/>
<path d="M121.373 26.1919H118.48C118.397 26.1919 118.356 26.1513 118.356 26.0702L118.381 8.94049C118.381 8.87556 118.414 8.8431 118.48 8.8431H121.348C121.414 8.8431 121.447 8.87556 121.447 8.94049L121.472 26.0702C121.472 26.1513 121.439 26.1919 121.373 26.1919Z" fill="#0B66C2"/>
<path d="M110.602 26.1919H107.734C107.651 26.1919 107.61 26.1513 107.61 26.0702L107.66 8.94049C107.66 8.87556 107.693 8.8431 107.759 8.8431H115.938C116.021 8.8431 116.062 8.87556 116.062 8.94049V11.7528C116.062 11.8178 116.029 11.8502 115.963 11.8502H110.726V15.7218H115.963C116.029 15.7218 116.062 15.7623 116.062 15.8435L116.087 18.668C116.087 18.7329 116.046 18.7654 115.963 18.7654H110.726V26.0702C110.726 26.1513 110.685 26.1919 110.602 26.1919Z" fill="#0B66C2"/>
<path d="M93.9559 26.1919H91.4002C91.2672 26.1919 91.2007 26.1351 91.2007 26.0215L91.1758 9.03789C91.1758 8.90803 91.2423 8.8431 91.3753 8.8431H93.6817L97.9952 18.668L97.8706 9.03789C97.8706 8.90803 97.9454 8.8431 98.095 8.8431H100.626C100.726 8.8431 100.775 8.90803 100.775 9.03789L100.8 26.0458C100.8 26.1432 100.759 26.1919 100.676 26.1919H98.4316L94.0058 17.0123L94.1928 25.9971C94.1928 26.127 94.1138 26.1919 93.9559 26.1919Z" fill="#0B66C2"/>
<path d="M88.8073 26.1919H80.5542C80.4877 26.1919 80.4544 26.1513 80.4544 26.0702L80.4794 8.94049C80.4794 8.87556 80.5126 8.8431 80.5791 8.8431H88.7824C88.8489 8.8431 88.8821 8.88368 88.8821 8.96484V11.7528C88.8821 11.8178 88.8489 11.8502 88.7824 11.8502H83.5462V15.7461H88.7824C88.8489 15.7461 88.8821 15.7786 88.8821 15.8435L88.9071 18.668C88.9071 18.7329 88.8738 18.7654 88.8073 18.7654H83.5462V23.1239H88.8073C88.8738 23.1239 88.9071 23.1645 88.9071 23.2457V26.0945C88.9071 26.1595 88.8738 26.1919 88.8073 26.1919Z" fill="#0B66C2"/>
<path d="M75.3675 26.1919H72.2757C72.2009 26.1919 72.1593 26.1513 72.151 26.0702L68.6229 8.94049C68.6062 8.87556 68.6395 8.8431 68.7226 8.8431H71.6149C71.6814 8.8431 71.723 8.87556 71.7396 8.94049L73.8341 20.3603L75.8787 8.94049C75.8953 8.87556 75.9368 8.8431 76.0033 8.8431H78.8583C78.9497 8.8431 78.9829 8.87556 78.958 8.94049L75.4922 26.0702C75.4839 26.1513 75.4423 26.1919 75.3675 26.1919Z" fill="#0B66C2"/>
<path d="M67.5635 26.1919H59.3104C59.2439 26.1919 59.2106 26.1513 59.2106 26.0702L59.2356 8.94049C59.2356 8.87556 59.2688 8.8431 59.3353 8.8431H67.5386C67.6051 8.8431 67.6383 8.88368 67.6383 8.96484V11.7528C67.6383 11.8178 67.6051 11.8502 67.5386 11.8502H62.3024V15.7461H67.5386C67.6051 15.7461 67.6383 15.7786 67.6383 15.8435L67.6632 18.668C67.6632 18.7329 67.63 18.7654 67.5635 18.7654H62.3024V23.1239H67.5635C67.63 23.1239 67.6632 23.1645 67.6632 23.2457V26.0945C67.6632 26.1595 67.63 26.1919 67.5635 26.1919Z" fill="#0B66C2"/>
<path d="M52.4285 26.4358C51.5225 26.4358 50.6873 26.2086 49.9226 25.754C49.1663 25.2995 48.5596 24.6949 48.1024 23.94C47.6536 23.1771 47.4292 22.3411 47.4292 21.4321V20.2876C47.4292 20.1984 47.4708 20.1537 47.5539 20.1537H50.4213C50.4878 20.1537 50.521 20.1984 50.521 20.2876V21.4321C50.521 21.9759 50.708 22.4466 51.082 22.8443C51.4561 23.2339 51.9049 23.4287 52.4285 23.4287C52.9604 23.4287 53.4134 23.2298 53.7874 22.8321C54.1614 22.4263 54.3484 21.9596 54.3484 21.4321C54.3484 20.8233 53.9411 20.2917 53.1266 19.8372C52.9936 19.756 52.8191 19.6586 52.603 19.545C52.3952 19.4232 52.1459 19.2853 51.855 19.1311C51.5641 18.9768 51.2815 18.8267 51.0072 18.6806C50.733 18.5264 50.467 18.3803 50.2094 18.2423C49.2785 17.7066 48.5845 17.037 48.1274 16.2335C47.6786 15.4219 47.4541 14.5128 47.4541 13.5064C47.4541 12.5811 47.6869 11.7451 48.1523 10.9984C48.6177 10.2598 49.2245 9.67543 49.9725 9.24526C50.7288 8.80697 51.5475 8.58783 52.4285 8.58783C53.3344 8.58783 54.1655 8.80697 54.9219 9.24526C55.6782 9.69166 56.2808 10.2842 56.7296 11.0228C57.1867 11.7613 57.4153 12.5892 57.4153 13.5064V15.5517C57.4153 15.6166 57.382 15.6491 57.3155 15.6491H54.4481C54.3816 15.6491 54.3484 15.6166 54.3484 15.5517L54.3235 13.5064C54.3235 12.922 54.1365 12.4472 53.7624 12.0819C53.3884 11.7167 52.9438 11.5341 52.4285 11.5341C51.9049 11.5341 51.4561 11.7289 51.082 12.1185C50.708 12.5081 50.521 12.9707 50.521 13.5064C50.521 14.0502 50.6374 14.5047 50.8701 14.8699C51.1111 15.2352 51.5475 15.5842 52.1791 15.917C52.2456 15.9494 52.3994 16.0306 52.6404 16.1604C52.8814 16.2903 53.1474 16.4364 53.4383 16.5987C53.7375 16.7529 54.0076 16.895 54.2487 17.0248C54.4897 17.1466 54.6351 17.2196 54.685 17.244C55.5328 17.7066 56.2018 18.2748 56.6922 18.9484C57.1909 19.6221 57.4402 20.45 57.4402 21.4321C57.4402 22.3817 57.2158 23.2339 56.767 23.9887C56.3099 24.7435 55.7031 25.3401 54.9468 25.7784C54.1905 26.2167 53.351 26.4358 52.4285 26.4358Z" fill="#0B66C2"/>
</svg>
